<svg width="126" height="19" viewBox="0 0 126 19" fill="none" xmlns="http://www.w3.org/2000/svg">
<path d="M15.9793 0.632813C15.7986 0.246094 15.4168 0 14.9976 0C14.5783 0 14.1999 0.246094 14.0158 0.632813L11.824 5.28399L6.9291 6.0293C6.52005 6.09258 6.17918 6.38789 6.05305 6.79219C5.92693 7.19649 6.02919 7.64297 6.32234 7.9418L9.87424 11.5664L9.03569 16.6887C8.96752 17.1105 9.13795 17.5395 9.47542 17.7891C9.81288 18.0387 10.2594 18.0703 10.6276 17.8699L15.001 15.4617L19.3744 17.8699C19.7425 18.0703 20.189 18.0422 20.5265 17.7891C20.864 17.5359 21.0344 17.1105 20.9662 16.6887L20.1243 11.5664L23.6762 7.9418C23.9693 7.64297 24.075 7.19649 23.9455 6.79219C23.8159 6.38789 23.4785 6.09258 23.0694 6.0293L18.1711 5.28399L15.9793 0.632813Z" fill="#2C33C1"/>
<path d="M39.9793 0.632813C39.7986 0.246094 39.4168 0 38.9976 0C38.5783 0 38.1999 0.246094 38.0158 0.632813L35.824 5.28399L30.9291 6.0293C30.5201 6.09258 30.1792 6.38789 30.0531 6.79219C29.9269 7.19649 30.0292 7.64297 30.3223 7.9418L33.8742 11.5664L33.0357 16.6887C32.9675 17.1105 33.138 17.5395 33.4754 17.7891C33.8129 18.0387 34.2594 18.0703 34.6276 17.8699L39.001 15.4617L43.3744 17.8699C43.7425 18.0703 44.189 18.0422 44.5265 17.7891C44.864 17.5359 45.0344 17.1105 44.9662 16.6887L44.1243 11.5664L47.6762 7.9418C47.9693 7.64297 48.075 7.19649 47.9455 6.79219C47.8159 6.38789 47.4785 6.09258 47.0694 6.0293L42.1711 5.28399L39.9793 0.632813Z" fill="#2C33C1"/>
<path d="M63.9793 0.632813C63.7986 0.246094 63.4168 0 62.9976 0C62.5783 0 62.1999 0.246094 62.0158 0.632813L59.824 5.28399L54.9291 6.0293C54.5201 6.09258 54.1792 6.38789 54.0531 6.79219C53.9269 7.19649 54.0292 7.64297 54.3223 7.9418L57.8742 11.5664L57.0357 16.6887C56.9675 17.1105 57.138 17.5395 57.4754 17.7891C57.8129 18.0387 58.2594 18.0703 58.6276 17.8699L63.001 15.4617L67.3744 17.8699C67.7425 18.0703 68.189 18.0422 68.5265 17.7891C68.864 17.5359 69.0344 17.1105 68.9662 16.6887L68.1243 11.5664L71.6762 7.9418C71.9693 7.64297 72.075 7.19649 71.9455 6.79219C71.8159 6.38789 71.4785 6.09258 71.0694 6.0293L66.1711 5.28399L63.9793 0.632813Z" fill="#2C33C1"/>
<path d="M87.9793 0.632813C87.7986 0.246094 87.4168 0 86.9976 0C86.5783 0 86.1999 0.246094 86.0158 0.632813L83.824 5.28399L78.9291 6.0293C78.5201 6.09258 78.1792 6.38789 78.0531 6.79219C77.9269 7.19649 78.0292 7.64297 78.3223 7.9418L81.8742 11.5664L81.0357 16.6887C80.9675 17.1105 81.138 17.5395 81.4754 17.7891C81.8129 18.0387 82.2594 18.0703 82.6276 17.8699L87.001 15.4617L91.3744 17.8699C91.7425 18.0703 92.189 18.0422 92.5265 17.7891C92.864 17.5359 93.0344 17.1105 92.9662 16.6887L92.1243 11.5664L95.6762 7.9418C95.9693 7.64297 96.075 7.19649 95.9455 6.79219C95.8159 6.38789 95.4785 6.09258 95.0694 6.0293L90.1711 5.28399L87.9793 0.632813Z" fill="#2C33C1"/>
<path d="M111.979 0.632813C111.799 0.246094 111.417 0 110.998 0C110.578 0 110.2 0.246094 110.016 0.632813L107.824 5.28399L102.929 6.0293C102.52 6.09258 102.179 6.38789 102.053 6.79219C101.927 7.19649 102.029 7.64297 102.322 7.9418L105.874 11.5664L105.036 16.6887C104.968 17.1105 105.138 17.5395 105.475 17.7891C105.813 18.0387 106.259 18.0703 106.628 17.8699L111.001 15.4617L115.374 17.8699C115.742 18.0703 116.189 18.0422 116.527 17.7891C116.864 17.5359 117.034 17.1105 116.966 16.6887L116.124 11.5664L119.676 7.9418C119.969 7.64297 120.075 7.19649 119.945 6.79219C119.816 6.38789 119.478 6.09258 119.069 6.0293L114.171 5.28399L111.979 0.632813Z" fill="#2C33C1"/>
</svg>
