<svg width="126" height="19" viewBox="0 0 126 19" fill="none" xmlns="http://www.w3.org/2000/svg">
<path d="M15.2998 0.950258L15.3008 0.952521L17.4926 5.60369L17.663 5.96532L18.0583 6.02545L22.9548 6.77048C22.955 6.77052 22.9552 6.77055 22.9554 6.77059C23.0719 6.78889 23.1848 6.87626 23.2312 7.02102C23.2766 7.16264 23.2373 7.31822 23.1408 7.41658L23.1405 7.41687L19.5886 11.0415L19.3226 11.313L19.3842 11.6881L20.2258 16.8083C20.2259 16.8086 20.2259 16.8089 20.226 16.8092C20.2499 16.9591 20.1878 17.1056 20.0765 17.1891C19.9784 17.2627 19.8488 17.2737 19.7341 17.2118C19.7337 17.2116 19.7333 17.2114 19.7329 17.2112L15.3627 14.8047L15.001 14.6055L14.6392 14.8047L10.269 17.2112C10.2686 17.2114 10.2682 17.2116 10.2679 17.2118C10.1573 17.2715 10.025 17.2627 9.92142 17.1861C9.81643 17.1084 9.75147 16.962 9.77599 16.8089C9.77602 16.8087 9.77605 16.8085 9.77608 16.8083L10.6144 11.6876L10.6757 11.3128L10.4099 11.0415L6.85802 7.41687L6.85774 7.41658C6.76454 7.32157 6.72238 7.16505 6.76903 7.01554C6.81153 6.87927 6.92267 6.78949 7.04307 6.77059C7.0433 6.77055 7.04353 6.77052 7.04376 6.77048L11.9369 6.02544L12.3321 5.96527L12.5025 5.60369L14.693 0.955148C14.6932 0.954829 14.6933 0.954511 14.6935 0.954193C14.7587 0.818116 14.8801 0.75 14.9976 0.75C15.1188 0.75 15.2395 0.821302 15.2998 0.950258Z" stroke="#2C33C1" stroke-width="1.5"/>
<path d="M39.2998 0.950258L39.3008 0.952521L41.4926 5.60369L41.663 5.96532L42.0583 6.02545L46.9548 6.77048C46.955 6.77052 46.9552 6.77055 46.9554 6.77059C47.0719 6.78889 47.1848 6.87626 47.2312 7.02102C47.2766 7.16264 47.2373 7.31822 47.1408 7.41658L47.1405 7.41687L43.5886 11.0415L43.3226 11.313L43.3842 11.6881L44.2258 16.8083C44.2259 16.8086 44.2259 16.8089 44.226 16.8092C44.2499 16.9591 44.1878 17.1056 44.0765 17.1891C43.9784 17.2627 43.8488 17.2737 43.7341 17.2118C43.7337 17.2116 43.7333 17.2114 43.7329 17.2112L39.3627 14.8047L39.001 14.6055L38.6392 14.8047L34.269 17.2112C34.2686 17.2114 34.2682 17.2116 34.2679 17.2118C34.1573 17.2715 34.025 17.2627 33.9214 17.1861C33.8164 17.1084 33.7515 16.962 33.776 16.8089C33.776 16.8087 33.7761 16.8085 33.7761 16.8083L34.6144 11.6876L34.6757 11.3128L34.4099 11.0415L30.858 7.41687L30.8577 7.41658C30.7645 7.32157 30.7224 7.16505 30.769 7.01554C30.8115 6.87927 30.9227 6.78949 31.0431 6.77059C31.0433 6.77055 31.0435 6.77052 31.0438 6.77048L35.9369 6.02544L36.3321 5.96527L36.5025 5.60369L38.693 0.955148C38.6932 0.954829 38.6933 0.954511 38.6935 0.954193C38.7587 0.818116 38.8801 0.75 38.9976 0.75C39.1188 0.75 39.2395 0.821302 39.2998 0.950258Z" stroke="#2C33C1" stroke-width="1.5"/>
<path d="M63.2998 0.950258L63.3008 0.952521L65.4926 5.60369L65.663 5.96532L66.0583 6.02545L70.9548 6.77048C70.955 6.77052 70.9552 6.77055 70.9554 6.77059C71.0719 6.78889 71.1848 6.87626 71.2312 7.02102C71.2766 7.16264 71.2373 7.31822 71.1408 7.41658L71.1405 7.41687L67.5886 11.0415L67.3226 11.313L67.3842 11.6881L68.2258 16.8083C68.2259 16.8086 68.2259 16.8089 68.226 16.8092C68.2499 16.9591 68.1878 17.1056 68.0765 17.1891C67.9784 17.2627 67.8488 17.2737 67.7341 17.2118C67.7337 17.2116 67.7333 17.2114 67.7329 17.2112L63.3627 14.8047L63.001 14.6055L62.6392 14.8047L58.269 17.2112C58.2686 17.2114 58.2682 17.2116 58.2679 17.2118C58.1573 17.2715 58.025 17.2627 57.9214 17.1861C57.8164 17.1084 57.7515 16.962 57.776 16.8089C57.776 16.8087 57.7761 16.8085 57.7761 16.8083L58.6144 11.6876L58.6757 11.3128L58.4099 11.0415L54.858 7.41687L54.8577 7.41658C54.7645 7.32157 54.7224 7.16505 54.769 7.01554C54.8115 6.87927 54.9227 6.78949 55.0431 6.77059C55.0433 6.77055 55.0435 6.77052 55.0438 6.77048L59.9369 6.02544L60.3321 5.96527L60.5025 5.60369L62.693 0.955148C62.6932 0.954829 62.6933 0.954511 62.6935 0.954193C62.7587 0.818116 62.8801 0.75 62.9976 0.75C63.1188 0.75 63.2395 0.821302 63.2998 0.950258Z" stroke="#2C33C1" stroke-width="1.5"/>
<path d="M87.2998 0.950258L87.3008 0.952521L89.4926 5.60369L89.663 5.96532L90.0583 6.02545L94.9548 6.77048C94.955 6.77052 94.9552 6.77055 94.9554 6.77059C95.0719 6.78889 95.1848 6.87626 95.2312 7.02102C95.2766 7.16264 95.2373 7.31822 95.1408 7.41658L95.1405 7.41687L91.5886 11.0415L91.3226 11.313L91.3842 11.6881L92.2258 16.8083C92.2259 16.8086 92.2259 16.8089 92.226 16.8092C92.2499 16.9591 92.1878 17.1056 92.0765 17.1891C91.9784 17.2627 91.8488 17.2737 91.7341 17.2118C91.7337 17.2116 91.7333 17.2114 91.7329 17.2112L87.3627 14.8047L87.001 14.6055L86.6392 14.8047L82.269 17.2112C82.2686 17.2114 82.2682 17.2116 82.2679 17.2118C82.1573 17.2715 82.025 17.2627 81.9214 17.1861C81.8164 17.1084 81.7515 16.962 81.776 16.8089C81.776 16.8087 81.7761 16.8085 81.7761 16.8083L82.6144 11.6876L82.6757 11.3128L82.4099 11.0415L78.858 7.41687L78.8577 7.41658C78.7645 7.32157 78.7224 7.16505 78.769 7.01554C78.8115 6.87927 78.9227 6.78949 79.0431 6.77059C79.0433 6.77055 79.0435 6.77052 79.0438 6.77048L83.9369 6.02544L84.3321 5.96527L84.5025 5.60369L86.693 0.955148C86.6932 0.954829 86.6933 0.954511 86.6935 0.954193C86.7587 0.818116 86.8801 0.75 86.9976 0.75C87.1188 0.75 87.2395 0.821302 87.2998 0.950258Z" stroke="#2C33C1" stroke-width="1.5"/>
<path d="M111.3 0.950258L111.301 0.952521L113.493 5.60369L113.663 5.96532L114.058 6.02545L118.955 6.77048C118.955 6.77052 118.955 6.77055 118.955 6.77059C119.072 6.78889 119.185 6.87626 119.231 7.02102C119.277 7.16264 119.237 7.31822 119.141 7.41658L119.14 7.41687L115.589 11.0415L115.323 11.313L115.384 11.6881L116.226 16.8083C116.226 16.8086 116.226 16.8089 116.226 16.8092C116.25 16.9591 116.188 17.1056 116.076 17.1891C115.978 17.2627 115.849 17.2737 115.734 17.2118C115.734 17.2116 115.733 17.2114 115.733 17.2112L111.363 14.8047L111.001 14.6055L110.639 14.8047L106.269 17.2112C106.269 17.2114 106.268 17.2116 106.268 17.2118C106.157 17.2715 106.025 17.2627 105.921 17.1861C105.816 17.1084 105.751 16.962 105.776 16.8089C105.776 16.8087 105.776 16.8085 105.776 16.8083L106.614 11.6876L106.676 11.3128L106.41 11.0415L102.858 7.41687L102.858 7.41658C102.765 7.32157 102.722 7.16505 102.769 7.01554C102.812 6.87927 102.923 6.78949 103.043 6.77059C103.043 6.77055 103.044 6.77052 103.044 6.77048L107.937 6.02544L108.332 5.96527L108.502 5.60369L110.693 0.955148C110.693 0.954829 110.693 0.954511 110.693 0.954193C110.759 0.818116 110.88 0.75 110.998 0.75C111.119 0.75 111.24 0.821302 111.3 0.950258Z" stroke="#2C33C1" stroke-width="1.5"/>
</svg>
