<svg width="18" height="15" viewBox="0 0 18 15" fill="none" xmlns="http://www.w3.org/2000/svg">
<path fill-rule="evenodd" clip-rule="evenodd" d="M15.6145 12.8014C16.1467 9.95702 17.1925 3.79422 17.4342 1.25464C17.4489 1.04341 17.4398 0.831209 17.4072 0.621998C17.3882 0.453505 17.3066 0.298292 17.1786 0.187067C16.9862 0.0309297 16.6892 -0.00196916 16.5563 0.000232697C15.9522 0.0109829 15.0254 0.33323 10.5652 2.18842C9.00311 2.83827 5.88106 4.18313 1.19905 6.22299C0.438766 6.52521 0.0404896 6.82095 0.00422382 7.11021C-0.0570585 7.59899 0.555045 7.79144 1.38855 8.05351C1.50192 8.08915 1.61938 8.12608 1.7398 8.16522C2.55986 8.43184 3.66293 8.74366 4.23638 8.75603C4.75658 8.76726 5.33713 8.55281 5.97805 8.1127C10.3526 5.1598 12.6108 3.66725 12.7525 3.63504C12.8526 3.61244 12.9909 3.58427 13.085 3.66742C13.1792 3.75057 13.1697 3.90891 13.1598 3.95133C13.0992 4.20984 10.6963 6.44371 9.453 7.59961C9.06547 7.9599 8.79058 8.21546 8.73438 8.27383C8.60835 8.40479 8.4799 8.52865 8.35647 8.64768C7.59482 9.38214 7.02391 9.93268 8.38843 10.8319C9.04455 11.2642 9.56952 11.6217 10.0933 11.9784C10.6649 12.3677 11.235 12.7559 11.9727 13.2395C12.1606 13.3627 12.3401 13.4906 12.515 13.6153C13.1805 14.0897 13.7784 14.516 14.5169 14.448C14.946 14.4085 15.3894 14.0049 15.6145 12.8014Z" fill="#2C33C1"/>
</svg>
