<svg width="23" height="18" viewBox="0 0 23 18" fill="none" xmlns="http://www.w3.org/2000/svg">
<path d="M20.6358 4.48592C20.6504 4.68279 20.6504 4.87969 20.6504 5.07656C20.6504 11.0812 15.9074 18 7.2386 18C4.5679 18 2.08694 17.2547 0 15.961C0.379457 16.0031 0.744269 16.0172 1.13832 16.0172C3.34198 16.0172 5.37057 15.3 6.9905 14.0766C4.91816 14.0344 3.18147 12.7266 2.58311 10.9266C2.87501 10.9687 3.16687 10.9969 3.47337 10.9969C3.89658 10.9969 4.31984 10.9406 4.71385 10.8422C2.55395 10.4203 0.933974 8.59218 0.933974 6.38437V6.32814C1.56149 6.66564 2.29125 6.87657 3.06467 6.90467C1.795 6.08902 0.963174 4.69685 0.963174 3.12184C0.963174 2.27811 1.19663 1.50467 1.60529 0.829666C3.92574 3.58591 7.41371 5.38588 11.3248 5.58279C11.2519 5.24529 11.2081 4.89376 11.2081 4.54219C11.2081 2.03904 13.3096 0 15.9219 0C17.2792 0 18.5051 0.548436 19.3661 1.43437C20.4314 1.23751 21.453 0.857803 22.3579 0.337502C22.0076 1.39221 21.2633 2.27815 20.2855 2.84061C21.2342 2.74222 22.1536 2.48904 23 2.13752C22.358 3.03748 21.5553 3.83901 20.6358 4.48592Z" fill="#2C33C1"/>
</svg>
