<svg width="228" height="16" viewBox="0 0 228 16" fill="none" xmlns="http://www.w3.org/2000/svg">
<path d="M10.0769 11.6685H7.84309L4.91434 7.60221C4.43449 6.92449 4.00428 6.23204 3.6237 5.52486L3.57406 5.54696C3.82226 6.75506 3.94636 8 3.94636 9.28177V15.7569H0V0.287293H3.64852L8.95998 7.75691L14.2714 0.287293H17.92V15.7569H13.9736V9.28177C13.9736 8 14.0977 6.75506 14.3459 5.54696L14.2963 5.52486C13.9157 6.23204 13.4855 6.92449 13.0056 7.60221L10.0769 11.6685Z" fill="black"/>
<path d="M31.3355 2.05525L37.466 15.7569H33.3459L31.956 12.5083H24.932L23.5669 15.7569H19.4468L26.4212 0.198895H28.1834C29.0603 0.198895 29.7305 0.346225 30.1938 0.640885C30.6571 0.920811 31.0377 1.39227 31.3355 2.05525ZM28.4564 4.1547L26.1978 9.63536H30.6902L28.4564 4.1547Z" fill="black"/>
<path d="M44.5092 13.0387C46.7596 13.0387 47.8848 12.4641 47.8848 11.3149C47.8848 10.7845 47.62 10.3794 47.0905 10.0994C46.561 9.80479 45.6923 9.5175 44.4844 9.23757C42.3168 8.73665 40.7449 8.11786 39.7686 7.38122C38.8089 6.64457 38.3291 5.59853 38.3291 4.24309C38.3291 2.96133 38.8751 1.93739 39.9672 1.17127C41.0593 0.390424 42.6229 0 44.6582 0C46.9416 0 48.679 0.279927 49.8703 0.83978C50.5818 1.17864 50.9376 1.70902 50.9376 2.43094C50.9376 2.94659 50.7308 3.57274 50.3171 4.30939C48.7617 3.41068 46.983 2.96133 44.9808 2.96133C43.9715 2.96133 43.26 3.06446 42.8463 3.27072C42.4326 3.46225 42.2258 3.76427 42.2258 4.1768C42.2258 4.63352 42.474 5.00184 42.9704 5.28177C43.4668 5.54696 44.2941 5.81215 45.4524 6.07735C47.5042 6.56354 49.0678 7.20442 50.1434 8C51.2354 8.78085 51.7815 9.84899 51.7815 11.2044C51.7815 12.7956 51.1279 13.9963 49.8207 14.8066C48.5135 15.6022 46.7348 16 44.4844 16C43.5578 16 42.6064 15.919 41.6301 15.7569C40.6539 15.5801 39.901 15.3738 39.3715 15.1381C38.6269 14.8435 38.2546 14.2983 38.2546 13.5028C38.2546 12.8398 38.4284 12.1694 38.7758 11.4917C39.4046 11.9632 40.2237 12.3389 41.233 12.6188C42.2589 12.8987 43.351 13.0387 44.5092 13.0387Z" fill="black"/>
<path d="M67.6685 3.29282L62.2578 3.22652V15.7569H58.2866V3.22652L52.8759 3.29282V0.287293H67.6685V3.29282Z" fill="black"/>
<path d="M78.9744 9.30387H73.2658V12.7514H81.8535V15.7569H69.3939V0.243095H81.6301V3.24862H73.2658V6.34254H80.9352V7.44751C80.9352 8.68508 80.2816 9.30387 78.9744 9.30387Z" fill="black"/>
<path d="M91.6027 9.83425H88.0534V15.7569H84.0822V0.243095H91.6027C93.7703 0.243095 95.4001 0.67035 96.4922 1.52486C97.5843 2.36464 98.1303 3.53591 98.1303 5.03867C98.1303 7.02762 97.2285 8.41252 95.4249 9.19337L98.4778 15.7569H96.4922C95.0692 15.7569 94.1095 15.2192 93.6131 14.1436L91.6027 9.83425ZM88.0038 3.24862V6.82873H91.6275C92.4879 6.82873 93.1332 6.66667 93.5634 6.34254C93.9936 6.00368 94.2087 5.56906 94.2087 5.03867C94.2087 4.50829 93.9936 4.08103 93.5634 3.75691C93.1332 3.41805 92.4879 3.24862 91.6275 3.24862H88.0038Z" fill="black"/>
<path d="M100.613 15.7569V0.243095H102.226C103.037 0.243095 103.632 0.405157 104.013 0.729283C104.394 1.05341 104.584 1.55433 104.584 2.23204V6.32044H111.782V0.243095H115.753V15.7569H111.782V9.32597H104.584V15.7569H100.613Z" fill="black"/>
<path d="M129.185 2.05525L135.316 15.7569H131.195L129.806 12.5083H122.781L121.416 15.7569H117.296L124.271 0.198895H126.033C126.91 0.198895 127.58 0.346225 128.043 0.640885C128.507 0.920811 128.887 1.39227 129.185 2.05525ZM126.306 4.1547L124.047 9.63536H128.54L126.306 4.1547Z" fill="black"/>
<path d="M152.336 0.243095V15.7569H148.613L140.82 5.96685V15.7569H136.849V0.243095H140.572L148.365 10.0331V0.243095H152.336Z" fill="black"/>
<path d="M159.58 12.7514H162.459C163.899 12.7514 164.991 12.3168 165.736 11.4475C166.497 10.5783 166.877 9.39226 166.877 7.8895C166.877 6.41621 166.464 5.2744 165.636 4.46409C164.826 3.65378 163.667 3.24862 162.162 3.24862H159.58V12.7514ZM162.459 15.7569H155.609V0.243095H162.162C164.925 0.243095 167.059 0.920811 168.565 2.27624C170.087 3.61694 170.849 5.48803 170.849 7.8895C170.849 10.3057 170.129 12.221 168.689 13.6354C167.266 15.0497 165.19 15.7569 162.459 15.7569Z" fill="black"/>
<path d="M186.217 10.453H183.164V15.7569H179.193V0.243095H186.217C188.401 0.243095 190.031 0.69245 191.106 1.59116C192.198 2.47514 192.745 3.72744 192.745 5.34807C192.745 6.96869 192.198 8.22836 191.106 9.12707C190.031 10.011 188.401 10.453 186.217 10.453ZM183.114 3.24862V7.44751H186.242C187.102 7.44751 187.747 7.26335 188.178 6.89503C188.608 6.51197 188.823 5.99632 188.823 5.34807C188.823 4.71455 188.608 4.20626 188.178 3.8232C187.747 3.44015 187.102 3.24862 186.242 3.24862H183.114Z" fill="#2430C6"/>
<path d="M202.807 9.83425H199.258V15.7569H195.287V8V0.243095H202.807C204.975 0.243095 206.605 0.67035 207.697 1.52486C208.789 2.36464 209.335 3.53591 209.335 5.03867C209.335 7.02762 208.433 8.41252 206.63 9.19337L209.683 15.7569H207.697C206.274 15.7569 205.314 15.2192 204.818 14.1436L202.807 9.83425ZM199.209 3.24862V6.82873H202.832C203.693 6.82873 204.338 6.66667 204.768 6.34254C205.198 6.00368 205.414 5.56906 205.414 5.03867C205.414 4.50829 205.198 4.08103 204.768 3.75691C204.338 3.41805 203.693 3.24862 202.832 3.24862H199.209Z" fill="#2430C6"/>
<path d="M222.912 4.35359C222.167 3.45488 221.059 3.00553 219.586 3.00553C218.113 3.00553 217.005 3.45488 216.26 4.35359C215.516 5.23757 215.143 6.45304 215.143 8C215.143 9.54696 215.516 10.7698 216.26 11.6685C217.005 12.5525 218.113 12.9945 219.586 12.9945C221.059 12.9945 222.167 12.5525 222.912 11.6685C223.657 10.7698 224.029 9.54696 224.029 8C224.029 6.45304 223.657 5.23757 222.912 4.35359ZM213.307 2.14365C214.746 0.714549 216.839 0 219.586 0C222.333 0 224.418 0.714549 225.841 2.14365C227.28 3.55801 228 5.51013 228 8C228 10.4899 227.28 12.4494 225.841 13.8785C224.418 15.2928 222.333 16 219.586 16C216.839 16 214.746 15.2928 213.307 13.8785C211.884 12.4494 211.172 10.4899 211.172 8C211.172 5.51013 211.884 3.55801 213.307 2.14365Z" fill="#2430C6"/>
</svg>
