<svg width="15" height="15" viewBox="0 0 15 15" fill="none" xmlns="http://www.w3.org/2000/svg">
    <path fill-rule="evenodd" clip-rule="evenodd"
          d="M7.5 0C7.15482 0 6.875 0.279822 6.875 0.625V9.55364L5.2632 7.94185C5.01913 7.69777 4.6234 7.69777 4.37932 7.94185C4.13524 8.18592 4.13524 8.58165 4.37932 8.82573L7.03097 11.4774C7.16076 11.6072 7.33343 11.6679 7.50338 11.6597C7.67393 11.6685 7.8474 11.6077 7.97767 11.4775L10.6293 8.82582C10.8734 8.58175 10.8734 8.18602 10.6293 7.94194C10.3852 7.69786 9.98951 7.69786 9.74544 7.94194L8.125 9.56238V0.625C8.125 0.279822 7.84518 0 7.5 0ZM14.375 10.625C14.7202 10.625 15 10.9048 15 11.25V13C15 14.1046 14.1046 15 13 15H2C0.89543 15 0 14.1046 0 13V11.25C0 10.9048 0.279822 10.625 0.625 10.625C0.765701 10.625 0.895542 10.6715 1 10.75V13C1 13.5523 1.44772 14 2 14H13C13.5523 14 14 13.5523 14 13V10.75C14.1045 10.6715 14.2343 10.625 14.375 10.625Z"
          fill="#2C33C1"/>
</svg>
