<svg width="10" height="8" viewBox="0 0 10 8" fill="none" xmlns="http://www.w3.org/2000/svg">
    <path d="M4.99913 0C3.59648 0 2.47331 0.643287 1.65567 1.40894C0.843243 2.1676 0.299887 3.07659 0.042965 3.70065C-0.0143217 3.83875 -0.0143217 3.99258 0.042965 4.13067C0.299887 4.75473 0.843243 5.66373 1.65567 6.42239C2.47331 7.18804 3.59648 7.83133 4.99913 7.83133C6.40179 7.83133 7.52496 7.18804 8.34259 6.42239C9.15502 5.66198 9.69838 4.75473 9.95704 4.13067C10.0143 3.99258 10.0143 3.83875 9.95704 3.70065C9.69838 3.07659 9.15502 2.1676 8.34259 1.40894C7.52496 0.643287 6.40179 0 4.99913 0ZM7.49892 3.91566C7.49892 5.30537 6.37922 6.43287 4.99913 6.43287C3.61904 6.43287 2.49935 5.30537 2.49935 3.91566C2.49935 2.52595 3.61904 1.39845 4.99913 1.39845C6.37922 1.39845 7.49892 2.52595 7.49892 3.91566ZM4.99913 2.7969C4.99913 3.41397 4.50091 3.91566 3.88812 3.91566C3.68848 3.91566 3.501 3.86322 3.33955 3.76883C3.33608 3.81777 3.33261 3.86497 3.33261 3.91566C3.33261 4.84214 4.07907 5.5938 4.99913 5.5938C5.91919 5.5938 6.66565 4.84214 6.66565 3.91566C6.66565 2.98919 5.91919 2.23752 4.99913 2.23752C4.95053 2.23752 4.90192 2.23927 4.85331 2.24451C4.94532 2.40708 4.99913 2.59587 4.99913 2.7969Z" fill="#BFC2FF"/>
</svg>
