<svg width="100" height="100" viewBox="0 0 100 100" fill="none" xmlns="http://www.w3.org/2000/svg">
    <path d="M3.43762 5.5625C2.50793 5.77344 1.85168 6.60938 1.87512 7.5625V78.9375C1.87512 87.4297 6.28918 92.2188 10.6251 94.375C14.9611 96.5312 19.2501 96.4375 19.2501 96.4375H80.7501V96.25C81.7111 96.3594 82.7501 96.4375 82.7501 96.4375C82.7501 96.4375 86.5939 96.4609 90.4376 94.25C94.1876 92.0938 97.8829 87.5312 98.0626 79.625C98.0861 79.5859 98.1095 79.5391 98.1251 79.5C98.1251 79.4531 98.1251 79.4219 98.1251 79.375C98.1329 79.2734 98.1329 79.1641 98.1251 79.0625V28.875C98.1251 28.8516 98.1251 28.8359 98.1251 28.8125C98.1251 28.8125 98.1564 26.4688 96.9376 24.0625C95.7189 21.6562 92.8829 19.0625 88.4376 19.0625V19H69.5001V23H80.6251C80.3829 23.3438 80.1798 23.6562 80.0001 24C78.7814 26.3828 78.7501 28.75 78.7501 28.75V77.25C78.7423 77.9688 79.1173 78.6406 79.7423 79.0078C80.3673 79.3672 81.1329 79.3672 81.7579 79.0078C82.3829 78.6406 82.7579 77.9688 82.7501 77.25V28.75C82.7501 28.6953 82.8282 27.25 83.5626 25.8125C84.3126 24.3516 85.3673 23.0625 88.4376 23.0625C91.5001 23.0625 92.5548 24.3828 93.3126 25.875C94.0548 27.3438 94.1876 28.8203 94.1876 28.875H94.1251V79.0625C94.1251 86.1797 91.2814 89.1797 88.4376 90.8125C85.5939 92.4453 82.7501 92.4375 82.7501 92.4375C82.7501 92.4375 79.3673 92.3906 76.0001 90.6875C72.6329 88.9844 69.3751 85.9922 69.3751 78.9375V7.5625C69.3751 6.46094 68.4767 5.5625 67.3751 5.5625H3.87512C3.72668 5.54688 3.58606 5.54688 3.43762 5.5625ZM5.87512 9.5625H65.3751V78.9375C65.3751 85.5156 68.1642 89.8203 71.4376 92.4375H19.2501C19.2267 92.4375 19.2111 92.4375 19.1876 92.4375C19.1876 92.4375 18.3282 92.4453 17.0626 92.25C16.4298 92.1484 15.7267 91.9844 14.9376 91.75C14.1486 91.5156 13.2736 91.2266 12.4376 90.8125C12.0157 90.6016 11.5939 90.3828 11.1876 90.125C8.32825 88.3281 5.87512 85.2266 5.87512 78.9375V9.5625ZM13.8751 22C12.7736 22.1562 12.0001 23.1797 12.1564 24.2812C12.3126 25.3828 13.3361 26.1562 14.4376 26H53.8751C54.5939 26.0078 55.2657 25.6328 55.6329 25.0078C55.9923 24.3828 55.9923 23.6172 55.6329 22.9922C55.2657 22.3672 54.5939 21.9922 53.8751 22H14.4376C14.3751 22 14.3126 22 14.2501 22C14.1876 22 14.1251 22 14.0626 22C14.0001 22 13.9376 22 13.8751 22ZM13.8751 30C12.7736 30.1562 12.0001 31.1797 12.1564 32.2812C12.3126 33.3828 13.3361 34.1562 14.4376 34H53.8751C54.5939 34.0078 55.2657 33.6328 55.6329 33.0078C55.9923 32.3828 55.9923 31.6172 55.6329 30.9922C55.2657 30.3672 54.5939 29.9922 53.8751 30H14.4376C14.3751 30 14.3126 30 14.2501 30C14.1876 30 14.1251 30 14.0626 30C14.0001 30 13.9376 30 13.8751 30ZM14.8126 46C13.7111 46.1562 12.9376 47.1797 13.0939 48.2812C13.2501 49.3828 14.2736 50.1562 15.3751 50H28.9376C29.6564 50.0078 30.3282 49.6328 30.6954 49.0078C31.0548 48.3828 31.0548 47.6172 30.6954 46.9922C30.3282 46.3672 29.6564 45.9922 28.9376 46H15.3751C15.3126 46 15.2501 46 15.1876 46C15.1251 46 15.0626 46 15.0001 46C14.9376 46 14.8751 46 14.8126 46ZM37.8751 46C36.7736 46.1562 36.0001 47.1797 36.1564 48.2812C36.3126 49.3828 37.3361 50.1562 38.4376 50H53.8751C54.5939 50.0078 55.2657 49.6328 55.6329 49.0078C55.9923 48.3828 55.9923 47.6172 55.6329 46.9922C55.2657 46.3672 54.5939 45.9922 53.8751 46H38.4376C38.3751 46 38.3126 46 38.2501 46C38.1876 46 38.1251 46 38.0626 46C38.0001 46 37.9376 46 37.8751 46ZM14.8126 54C13.7111 54.1562 12.9376 55.1797 13.0939 56.2812C13.2501 57.3828 14.2736 58.1562 15.3751 58H28.9376C29.6564 58.0078 30.3282 57.6328 30.6954 57.0078C31.0548 56.3828 31.0548 55.6172 30.6954 54.9922C30.3282 54.3672 29.6564 53.9922 28.9376 54H15.3751C15.3126 54 15.2501 54 15.1876 54C15.1251 54 15.0626 54 15.0001 54C14.9376 54 14.8751 54 14.8126 54ZM37.8751 54C36.7736 54.1562 36.0001 55.1797 36.1564 56.2812C36.3126 57.3828 37.3361 58.1562 38.4376 58H53.8751C54.5939 58.0078 55.2657 57.6328 55.6329 57.0078C55.9923 56.3828 55.9923 55.6172 55.6329 54.9922C55.2657 54.3672 54.5939 53.9922 53.8751 54H38.4376C38.3751 54 38.3126 54 38.2501 54C38.1876 54 38.1251 54 38.0626 54C38.0001 54 37.9376 54 37.8751 54ZM37.8751 61.5625C36.7736 61.7188 36.0001 62.7422 36.1564 63.8438C36.3126 64.9453 37.3361 65.7188 38.4376 65.5625H53.8751C54.5939 65.5703 55.2657 65.1953 55.6329 64.5703C55.9923 63.9453 55.9923 63.1797 55.6329 62.5547C55.2657 61.9297 54.5939 61.5547 53.8751 61.5625H38.4376C38.3126 61.5469 38.1876 61.5469 38.0626 61.5625C38.0001 61.5625 37.9376 61.5625 37.8751 61.5625ZM14.8126 62C13.7111 62.1562 12.9376 63.1797 13.0939 64.2812C13.2501 65.3828 14.2736 66.1562 15.3751 66H28.9376C29.6564 66.0078 30.3282 65.6328 30.6954 65.0078C31.0548 64.3828 31.0548 63.6172 30.6954 62.9922C30.3282 62.3672 29.6564 61.9922 28.9376 62H15.3751C15.3126 62 15.2501 62 15.1876 62C15.1251 62 15.0626 62 15.0001 62C14.9376 62 14.8751 62 14.8126 62ZM37.8751 69.5625C36.7736 69.7188 36.0001 70.7422 36.1564 71.8438C36.3126 72.9453 37.3361 73.7188 38.4376 73.5625H53.8751C54.5939 73.5703 55.2657 73.1953 55.6329 72.5703C55.9923 71.9453 55.9923 71.1797 55.6329 70.5547C55.2657 69.9297 54.5939 69.5547 53.8751 69.5625H38.4376C38.3126 69.5469 38.1876 69.5469 38.0626 69.5625C38.0001 69.5625 37.9376 69.5625 37.8751 69.5625ZM14.8126 70C13.7111 70.1562 12.9376 71.1797 13.0939 72.2812C13.2501 73.3828 14.2736 74.1562 15.3751 74H28.9376C29.6564 74.0078 30.3282 73.6328 30.6954 73.0078C31.0548 72.3828 31.0548 71.6172 30.6954 70.9922C30.3282 70.3672 29.6564 69.9922 28.9376 70H15.3751C15.3126 70 15.2501 70 15.1876 70C15.1251 70 15.0626 70 15.0001 70C14.9376 70 14.8751 70 14.8126 70ZM37.8751 77.0625C36.7736 77.2188 36.0001 78.2422 36.1564 79.3438C36.3126 80.4453 37.3361 81.2188 38.4376 81.0625H53.8751C54.5939 81.0703 55.2657 80.6953 55.6329 80.0703C55.9923 79.4453 55.9923 78.6797 55.6329 78.0547C55.2657 77.4297 54.5939 77.0547 53.8751 77.0625H38.4376C38.3751 77.0625 38.3126 77.0625 38.2501 77.0625C38.1876 77.0625 38.1251 77.0625 38.0626 77.0625C38.0001 77.0625 37.9376 77.0625 37.8751 77.0625ZM14.8126 78C13.7111 78.1562 12.9376 79.1797 13.0939 80.2812C13.2501 81.3828 14.2736 82.1562 15.3751 82H28.9376C29.6564 82.0078 30.3282 81.6328 30.6954 81.0078C31.0548 80.3828 31.0548 79.6172 30.6954 78.9922C30.3282 78.3672 29.6564 77.9922 28.9376 78H15.3751C15.3126 78 15.2501 78 15.1876 78C15.1251 78 15.0626 78 15.0001 78C14.9376 78 14.8751 78 14.8126 78Z" fill="#2C33C1"/>
</svg>
